<svg width="17" height="32" viewBox="0 0 41 74" fill="none" xmlns="http://www.w3.org/2000/svg"><path d="M7.51 4.92c.524.21.911.553 1.165 1.031.252.478.378 1.127.378 1.946v4.641H7.167l-.158-.77h-.107a2.069 2.069 0 01-.879.688 3.05 3.05 0 01-1.192.225c-.524 0-.976-.095-1.357-.282a2.03 2.03 0 01-.875-.793c-.202-.34-.303-.736-.303-1.19 0-.746.26-1.325.782-1.734.521-.41 1.343-.65 2.468-.722l1.27-.106v-.1c0-.362-.058-.646-.174-.85a.98.98 0 00-.558-.44c-.254-.087-.603-.132-1.046-.132a7.712 7.712 0 00-2.121.314V4.934a8.704 8.704 0 011.235-.243 10.32 10.32 0 011.292-.085c.854 0 1.543.105 2.066.314zm-1.27 6.06c.214-.08.406-.205.578-.376V9.14l-1.043.078c-.428.033-.74.131-.936.296-.195.164-.293.394-.293.69 0 .29.089.51.265.663.176.153.433.229.77.229.225.001.444-.039.658-.117zM10.258 1h2.286v4.513h.106c.267-.295.581-.52.944-.675a3.026 3.026 0 011.206-.232c.77 0 1.39.247 1.857.742.466.495.7 1.27.7 2.328v4.863h-2.285V7.826c0-.456-.093-.78-.278-.97-.185-.19-.46-.286-.82-.286-.268 0-.53.055-.79.164-.26.11-.473.27-.64.478v5.327h-2.286V1zm9.722 11.239a3.06 3.06 0 01-1.314-1.353c-.306-.602-.46-1.345-.46-2.232 0-1.343.331-2.353.992-3.03.662-.68 1.603-1.018 2.822-1.018 1.214 0 2.152.34 2.817 1.021.664.68.996 1.686.996 3.014 0 .89-.154 1.637-.46 2.241a3.04 3.04 0 01-1.314 1.357c-.569.3-1.249.45-2.038.45-.792 0-1.472-.15-2.04-.45zm2.875-1.5c.218-.142.386-.382.504-.717.117-.335.175-.79.175-1.36 0-.581-.058-1.043-.175-1.385-.117-.343-.286-.586-.508-.729-.22-.143-.499-.213-.831-.213-.333 0-.61.072-.832.213-.22.143-.39.382-.506.717-.117.336-.175.792-.175 1.368 0 .581.058 1.042.175 1.382.116.34.284.582.504.724.218.143.497.215.835.215.336 0 .614-.072.834-.215zm3.891-6.012h1.864l.18 1.007h.106c.214-.376.5-.655.856-.84a2.617 2.617 0 011.214-.275c.229 0 .438.019.628.057V6.74a3.877 3.877 0 00-.77-.064 2.74 2.74 0 00-1.022.2c-.333.134-.59.316-.77.55v5.112h-2.286v-7.81zm10.474.193c.524.21.912.553 1.165 1.031.252.478.378 1.127.378 1.946v4.641h-1.885l-.158-.77h-.105a2.08 2.08 0 01-.879.688 3.05 3.05 0 01-1.193.225c-.523 0-.975-.095-1.356-.282a2.03 2.03 0 01-.875-.793c-.203-.34-.304-.736-.304-1.19 0-.746.26-1.325.781-1.734.522-.41 1.343-.65 2.468-.722l1.27-.106v-.1c0-.362-.057-.646-.174-.85a.98.98 0 00-.557-.44c-.255-.087-.604-.132-1.047-.132a7.713 7.713 0 00-2.12.314V4.934a8.702 8.702 0 011.234-.243 10.32 10.32 0 011.292-.085c.854 0 1.543.105 2.066.314zm-1.27 6.06c.214-.08.407-.205.578-.376V9.14l-1.043.078c-.428.033-.74.131-.935.296-.195.164-.293.394-.293.69 0 .29.088.51.264.663.176.153.433.229.77.229.225.001.445-.039.659-.117zM8.726 18.556h5.216v27.588H5.867V27.932L0 31.905v-7.444l8.726-5.904zM38.978 34.3c.699 1.114 1.049 2.45 1.049 4.01 0 1.572-.431 2.976-1.291 4.214-.86 1.237-2.164 2.213-3.907 2.924-1.745.711-3.887 1.067-6.424 1.067-2.673 0-4.882-.309-6.627-.928-1.745-.62-3.033-1.467-3.862-2.543-.829-1.078-1.243-2.321-1.243-3.731 0-1.362.402-2.584 1.206-3.667.804-1.083 1.98-1.958 3.527-2.627-1.436-.842-2.468-1.826-3.1-2.952-.632-1.125-.947-2.4-.947-3.824 0-1.584.427-2.97 1.28-4.159.855-1.188 2.146-2.116 3.872-2.785 1.727-.67 3.853-1.003 6.377-1.003 2.191 0 4.069.278 5.635.835 1.565.558 2.76 1.358 3.583 2.404.823 1.047 1.236 2.293 1.236 3.741 0 2.661-1.319 4.684-3.955 6.07 1.693.856 2.89 1.84 3.59 2.954zm-6.396 4.456c0-.558-.161-1.03-.483-1.42-.321-.39-.897-.761-1.726-1.115-.83-.352-2.036-.727-3.62-1.123l-.353-.093c-.767.433-1.334.947-1.7 1.541-.364.595-.547 1.2-.547 1.82 0 .879.35 1.554 1.049 2.023.699.47 1.772.705 3.22.705 2.774.001 4.16-.778 4.16-2.339zM25.87 24.338c-.638.415-.956.95-.956 1.606 0 .52.133.956.4 1.308.265.353.78.706 1.541 1.06.761.352 1.91.751 3.444 1.197.755-.508 1.303-1.043 1.644-1.606.34-.564.51-1.167.51-1.81 0-.767-.307-1.355-.919-1.764-.613-.408-1.525-.613-2.738-.613-1.314 0-2.288.208-2.926.622zm-7.318 48.739L3.516 57.564c-1.74-1.794-.368-4.655 2.232-4.655h30.071c2.6 0 3.97 2.86 2.232 4.655L23.014 73.077c-1.193 1.23-3.27 1.23-4.462 0z" fill="#3FB4DB"/></svg>