<svg xmlns="http://www.w3.org/2000/svg" width="17" height="32" viewBox="0 0 41 74"><path d="M34 52.242c2.593 0 3.96 2.884 2.225 4.693L21.234 72.57c-1.19 1.24-3.26 1.24-4.45 0L1.793 56.935c-1.735-1.81-.368-4.693 2.225-4.693H34zm-9.696-34.596c3.85 0 6.723.683 8.617 2.049 1.894 1.366 2.841 3.496 2.841 6.39 0 1.422-.286 2.829-.86 4.22-.574 1.39-1.54 2.866-2.897 4.425l-3.776 4.322h8.737v6.662H17.585v-4.341l7.386-8.851c1.036-1.26 1.774-2.323 2.212-3.19.438-.867.657-1.675.657-2.424 0-.935-.343-1.634-1.027-2.095-.685-.462-1.824-.693-3.416-.693a18.83 18.83 0 00-3.248.29c-1.105.194-2.077.453-2.916.777v-6.512c.864-.287 1.975-.53 3.332-.73 1.358-.199 2.604-.299 3.74-.299zm-10.402.262v27.806H5.849V27.357L0 31.362v-7.504l8.7-5.95h5.202zm6.34-13.774c1.21 0 2.146.343 2.809 1.03.662.686.993 1.698.993 3.037 0 .897-.153 1.65-.46 2.26a3.056 3.056 0 01-1.31 1.367c-.567.302-1.244.453-2.032.453s-1.465-.15-2.033-.453a3.06 3.06 0 01-1.31-1.364c-.306-.607-.459-1.357-.459-2.249 0-1.353.33-2.371.99-3.055.66-.684 1.597-1.026 2.812-1.026zm-16.524 0c.85 0 1.535.106 2.057.317a2.19 2.19 0 011.16 1.04c.252.482.378 1.136.378 1.961v4.678h-1.88l-.156-.777H5.17c-.228.312-.52.543-.875.694a3.013 3.013 0 01-1.19.227c-.522 0-.972-.095-1.352-.284a2.04 2.04 0 01-.872-.8c-.202-.342-.303-.741-.303-1.197 0-.754.26-1.336.78-1.75.52-.412 1.34-.654 2.46-.726l1.267-.108v-.1c0-.365-.059-.65-.175-.857a.979.979 0 00-.555-.443c-.254-.088-.602-.133-1.043-.133a7.586 7.586 0 00-2.115.317V4.465c.37-.105.781-.187 1.232-.244.451-.058.88-.087 1.289-.087zm29.624 0c.85 0 1.535.106 2.057.317a2.19 2.19 0 011.16 1.04c.252.482.378 1.136.378 1.961v4.678h-1.88l-.156-.777h-.107c-.228.312-.52.543-.876.694a3.013 3.013 0 01-1.189.227c-.522 0-.973-.095-1.352-.284a2.04 2.04 0 01-.872-.8c-.202-.342-.303-.741-.303-1.197 0-.754.26-1.336.78-1.75.52-.412 1.34-.654 2.46-.726l1.267-.108v-.1c0-.365-.059-.65-.175-.857a.979.979 0 00-.555-.443c-.254-.088-.602-.133-1.043-.133a7.586 7.586 0 00-2.115.317V4.465c.37-.105.781-.187 1.232-.244.451-.058.88-.087 1.289-.087zM10.794.5v4.548h.107c.266-.297.58-.524.94-.68.36-.156.762-.234 1.203-.234.77 0 1.386.25 1.851.749.465.499.698 1.28.698 2.346v4.901h-2.278V7.38c0-.46-.093-.787-.278-.979-.185-.191-.458-.287-.819-.287-.266 0-.528.055-.786.165-.26.11-.471.271-.638.482v5.37H8.516V.5h2.278zm18.369 3.649c.228 0 .436.02.626.057v2.08a3.878 3.878 0 00-.769-.064 2.7 2.7 0 00-1.018.201c-.332.134-.588.32-.769.554v5.153h-2.278V4.257h1.858l.178 1.014h.107c.214-.378.498-.66.854-.845a2.59 2.59 0 011.21-.277zM5.085 8.704l-1.04.08c-.427.033-.738.133-.932.298-.195.166-.292.397-.292.695 0 .293.088.516.263.67.176.153.432.23.77.23.222 0 .44-.04.654-.12.214-.079.406-.204.577-.377V8.704zm29.624 0l-1.04.08c-.427.033-.738.133-.932.298-.195.166-.292.397-.292.695 0 .293.087.516.263.67.176.153.432.23.769.23.223 0 .441-.04.655-.12.214-.079.406-.204.577-.377V8.704zM20.242 5.876c-.332 0-.609.072-.83.216-.22.144-.389.385-.505.723-.116.339-.174.798-.174 1.378 0 .586.058 1.05.174 1.393.116.343.284.587.502.73.218.145.496.216.833.216.337 0 .615-.071.833-.215.218-.144.386-.386.502-.724.116-.338.174-.795.174-1.37 0-.586-.058-1.051-.174-1.397-.116-.345-.285-.59-.505-.734-.221-.144-.498-.216-.83-.216z" fill="#3FB4DB" fill-rule="evenodd"/></svg>